<svg width="32" height="32" viewBox="0 0 32 32" fill="none" xmlns="http://www.w3.org/2000/svg">
<path d="M27.5557 7.11108H19.5557V29.3333H29.3334V8.88886C29.3334 8.41737 29.1461 7.96518 28.8127 7.63178C28.4793 7.29839 28.0272 7.11108 27.5557 7.11108ZM23.1112 22.2222H21.3334V20.4444H23.1112V22.2222ZM23.1112 17.7778H21.3334V16H23.1112V17.7778ZM23.1112 13.3333H21.3334V11.5555H23.1112V13.3333ZM26.6668 22.2222H24.889V20.4444H26.6668V22.2222ZM26.6668 17.7778H24.889V16H26.6668V17.7778ZM26.6668 13.3333H24.889V11.5555H26.6668V13.3333Z" fill="white"/>
<path d="M15.8934 2.66675H5.44011C4.94032 2.66675 4.46101 2.86529 4.10761 3.21869C3.7542 3.57209 3.55566 4.05141 3.55566 4.55119V29.3334H8.00011V26.6667H13.3334V29.3334H17.7779V4.55119C17.7779 4.05141 17.5793 3.57209 17.2259 3.21869C16.8725 2.86529 16.3932 2.66675 15.8934 2.66675ZM8.00011 22.2223H6.22233V20.4445H8.00011V22.2223ZM8.00011 17.7779H6.22233V16.0001H8.00011V17.7779ZM8.00011 13.3334H6.22233V11.5556H8.00011V13.3334ZM8.00011 8.88897H6.22233V7.11119H8.00011V8.88897ZM11.5557 22.2223H9.77789V20.4445H11.5557V22.2223ZM11.5557 17.7779H9.77789V16.0001H11.5557V17.7779ZM11.5557 13.3334H9.77789V11.5556H11.5557V13.3334ZM11.5557 8.88897H9.77789V7.11119H11.5557V8.88897ZM15.1112 22.2223H13.3334V20.4445H15.1112V22.2223ZM15.1112 17.7779H13.3334V16.0001H15.1112V17.7779ZM15.1112 13.3334H13.3334V11.5556H15.1112V13.3334ZM15.1112 8.88897H13.3334V7.11119H15.1112V8.88897Z" fill="white"/>
</svg>
