<svg width="72" height="67" viewBox="0 0 72 67" fill="none" xmlns="http://www.w3.org/2000/svg">
<path d="M39.0239 5.82254H33.0371V0H27.0503L27 17.5671L32.9113 23.4146H44.91V11.6451L39.0239 5.82254ZM38.9987 17.6667H32.9868V11.7197H38.9987V17.6667Z" fill="white"/>
<path d="M10.2379 48.9848C11.722 49.8308 12.4767 51.0999 12.4767 52.8168C12.4767 54.2351 11.9736 55.4045 10.9422 56.3252C9.93605 57.2459 8.67832 57.6937 7.1942 57.6937H0V40.9229H6.66596C8.12492 40.9229 9.33234 41.3707 10.3385 42.2416C11.3195 43.1374 11.8226 44.2571 11.8226 45.6257C11.8226 47.0191 11.2944 48.1388 10.2379 48.9848ZM6.66596 44.0083H3.3204V47.6909H6.66596C7.1942 47.6909 7.62183 47.5167 7.97399 47.1684C8.32616 46.82 8.50224 46.3721 8.50224 45.8496C8.50224 45.3271 8.32616 44.8792 7.99915 44.5308C7.64698 44.1825 7.1942 44.0083 6.66596 44.0083ZM7.16905 54.6083C7.72245 54.6083 8.20039 54.4092 8.5777 54.036C8.95502 53.6628 9.1311 53.19 9.1311 52.6177C9.1311 52.0703 8.95502 51.5975 8.5777 51.2243C8.20039 50.851 7.7476 50.652 7.16905 50.652H3.3204V54.6083H7.16905Z" fill="white"/>
<path d="M25.0045 56.2008C23.7719 57.42 22.2375 58.0421 20.4515 58.0421C18.6655 58.0421 17.1563 57.42 15.8985 56.2008C14.666 54.9815 14.0371 53.4885 14.0371 51.697C14.0371 49.9054 14.666 48.4374 15.8985 47.1932C17.1311 45.974 18.6404 45.3519 20.4515 45.3519C22.2626 45.3519 23.7719 45.974 25.0045 47.1932C26.2371 48.4125 26.8659 49.9054 26.8659 51.697C26.8659 53.4885 26.2622 54.9815 25.0045 56.2008ZM18.1121 54.0857C18.741 54.7078 19.5208 55.0313 20.4515 55.0313C21.3822 55.0313 22.162 54.7078 22.7909 54.0857C23.4198 53.4637 23.7468 52.6674 23.7468 51.7219C23.7468 50.7763 23.4198 49.9801 22.7909 49.358C22.162 48.736 21.3822 48.4125 20.4515 48.4125C19.5208 48.4125 18.741 48.7111 18.1121 49.358C17.4833 49.9801 17.1814 50.7763 17.1814 51.7219C17.1814 52.6674 17.4833 53.4637 18.1121 54.0857Z" fill="white"/>
<path d="M35.7438 48.6863H33.0019V53.6628C33.0019 54.0858 33.1025 54.3844 33.3289 54.5834C33.5302 54.7825 33.8572 54.882 34.2596 54.9069C34.6621 54.9318 35.1652 54.9318 35.7689 54.9069V57.7186C33.6308 57.9675 32.0964 57.7684 31.2159 57.1215C30.3355 56.4745 29.9079 55.3299 29.9079 53.6877V48.7111H27.7949V45.7252H29.9079V43.2867L33.0271 42.3412V45.7003H35.7689V48.6863H35.7438Z" fill="white"/>
<path d="M39.4918 44.282C38.9636 44.282 38.536 44.083 38.1586 43.7097C37.7813 43.3365 37.5801 42.8886 37.5801 42.3909C37.5801 41.8684 37.7813 41.4205 38.1586 41.0473C38.536 40.674 38.9887 40.475 39.4918 40.475C40.0201 40.475 40.4729 40.674 40.8502 41.0473C41.2275 41.4205 41.4287 41.8684 41.4287 42.3909C41.4287 42.9135 41.2275 43.3365 40.8502 43.7097C40.4729 44.083 40.0201 44.282 39.4918 44.282ZM37.9322 57.6938V45.7252H41.0514V57.6938H37.9322Z" fill="white"/>
<path d="M53.2017 45.7252H56.2454V57.1215C56.2454 58.9628 55.6165 60.3811 54.3839 61.3515C53.1514 62.3219 51.6672 62.8196 49.9064 62.8196C48.5984 62.8196 47.4413 62.5708 46.4603 62.0731C45.4792 61.5754 44.6994 60.8538 44.1712 59.8834L46.8376 58.3656C47.4413 59.4853 48.4978 60.0327 50.007 60.0327C50.9881 60.0327 51.7679 59.7839 52.3213 59.2614C52.8747 58.7388 53.1765 58.0172 53.1765 57.0717V55.7778C52.2458 56.997 50.9629 57.5942 49.3027 57.5942C47.5922 57.5942 46.1584 56.997 45.0013 55.8027C43.8442 54.6083 43.2656 53.1651 43.2656 51.4482C43.2656 49.7562 43.8442 48.313 45.0013 47.1186C46.1584 45.9243 47.5922 45.3271 49.2776 45.3271C50.9378 45.3271 52.2206 45.9243 53.1514 47.1435V45.7252H53.2017ZM47.3658 53.8618C47.9947 54.4839 48.8248 54.7825 49.8058 54.7825C50.7868 54.7825 51.5918 54.4839 52.2458 53.8618C52.8747 53.2398 53.2017 52.4684 53.2017 51.498C53.2017 50.5524 52.8747 49.7811 52.2458 49.159C51.6169 48.5369 50.7868 48.2384 49.8058 48.2384C48.8248 48.2384 48.0198 48.5369 47.3658 49.159C46.7369 49.7811 46.4099 50.5524 46.4099 51.498C46.4099 52.4684 46.7369 53.2646 47.3658 53.8618Z" fill="white"/>
<path d="M68.2944 45.7252H71.4136V57.6938H68.2944V56.2754C67.3637 57.4449 66.0305 58.0172 64.3452 58.0172C62.7353 58.0172 61.3518 57.3952 60.1946 56.1759C59.0375 54.9567 58.459 53.4637 58.459 51.6722C58.459 49.8806 59.0375 48.4125 60.1946 47.1684C61.3518 45.9492 62.7353 45.3271 64.3452 45.3271C66.0305 45.3271 67.3637 45.8994 68.2944 47.0689V45.7252ZM62.534 54.1355C63.1629 54.7576 63.9678 55.0811 64.9237 55.0811C65.8796 55.0811 66.6845 54.7576 67.3386 54.1355C67.9674 53.5135 68.2944 52.6923 68.2944 51.697C68.2944 50.7017 67.9674 49.9055 67.3386 49.2585C66.7097 48.6365 65.9047 48.313 64.9237 48.313C63.9427 48.313 63.1629 48.6365 62.534 49.2585C61.9052 49.8806 61.5781 50.7017 61.5781 51.697C61.5781 52.6923 61.9052 53.5135 62.534 54.1355Z" fill="white"/>
</svg>
