<svg width="32" height="32" viewBox="0 0 32 32" fill="none" xmlns="http://www.w3.org/2000/svg">
<path d="M10.107 5.43998L8.20036 3.53331C5.00036 5.97331 2.8937 9.73331 2.70703 14H5.3737C5.46815 12.3091 5.9428 10.6612 6.76232 9.17916C7.58184 7.6971 8.72512 6.41898 10.107 5.43998ZM26.627 14H29.2937C29.0937 9.73331 26.987 5.97331 23.8004 3.53331L21.907 5.43998C23.283 6.4238 24.4212 7.70333 25.238 9.1846C26.0548 10.6659 26.5294 12.3113 26.627 14ZM24.0004 14.6666C24.0004 10.5733 21.8137 7.14665 18.0004 6.23998V3.33331H14.0004V6.23998C10.1737 7.14665 8.00036 10.56 8.00036 14.6666V21.3333L5.3337 24V25.3333H26.667V24L24.0004 21.3333V14.6666ZM16.0004 29.3333C16.187 29.3333 16.3604 29.32 16.5337 29.28C17.4004 29.0933 18.107 28.5066 18.4537 27.7066C18.587 27.3866 18.6537 27.04 18.6537 26.6666H13.3204C13.3337 28.1333 14.5204 29.3333 16.0004 29.3333Z" fill="white"/>
</svg>
